<?xml version="1.0" standalone="no"?>
<!DOCTYPE svg PUBLIC "-//W3C//DTD SVG 20010904//EN"
 "http://www.w3.org/TR/2001/REC-SVG-20010904/DTD/svg10.dtd">
<svg version="1.0" xmlns="http://www.w3.org/2000/svg"
 width="1296.000000pt" height="1296.000000pt" viewBox="0 0 1296.000000 1296.000000"
 preserveAspectRatio="xMidYMid meet">
<metadata>
Created by potrace 1.14, written by Peter Selinger 2001-2017
</metadata>
<g transform="translate(0.000000,1296.000000) scale(0.100000,-0.100000)"
fill="#000000" stroke="none">
<path d="M6023 11284 c-18 -8 -33 -11 -33 -7 0 5 -4 3 -8 -3 -4 -5 -38 -23
-77 -39 -89 -37 -153 -71 -287 -153 -77 -47 -91 -56 -106 -70 -8 -7 -30 -25
-50 -40 -101 -75 -217 -195 -302 -314 -36 -51 -69 -97 -71 -103 -2 -5 -21 -43
-42 -82 -20 -40 -38 -76 -39 -80 -1 -5 -13 -37 -28 -73 -15 -36 -28 -69 -30
-75 -1 -5 -4 -14 -6 -20 -10 -32 -37 -145 -41 -175 -6 -49 -11 -75 -13 -75
-12 0 -19 -455 -8 -562 10 -108 76 -286 166 -448 27 -50 98 -160 117 -182 5
-7 21 -26 35 -44 51 -65 223 -228 298 -282 105 -76 129 -87 185 -87 l48 0 35
78 c19 42 46 100 59 127 l25 50 -28 25 c-15 14 -48 41 -72 60 -123 98 -270
261 -332 370 -53 93 -65 117 -92 185 -64 160 -92 285 -90 400 1 88 14 266 19
276 2 3 7 21 10 40 3 19 11 52 16 74 5 22 11 45 12 50 1 6 5 15 8 20 8 14 23
68 21 78 -1 4 3 7 8 7 6 0 10 5 10 12 0 18 51 119 93 183 123 186 293 331 522
444 147 72 182 84 293 96 24 3 51 9 60 13 24 11 316 6 382 -6 30 -6 71 -13 90
-17 19 -3 40 -11 47 -17 7 -6 13 -8 13 -4 0 8 144 -46 151 -57 3 -5 9 -8 13
-8 15 3 108 -52 181 -106 137 -102 297 -279 371 -411 19 -34 70 -167 79 -209
2 -10 12 -45 21 -78 25 -92 34 -141 39 -207 1 -26 5 -50 7 -55 6 -12 2 -167
-6 -238 -16 -133 -58 -264 -127 -393 -28 -52 -54 -99 -59 -106 -5 -6 -33 -40
-60 -76 -86 -109 -184 -206 -301 -296 -33 -25 -58 -48 -56 -52 4 -8 37 -78 84
-181 l34 -74 68 5 c61 5 106 23 141 58 3 3 28 23 55 44 150 118 331 336 425
511 24 44 47 86 53 93 5 6 7 12 3 12 -4 0 1 15 10 32 34 65 84 221 91 281 9
86 10 439 0 512 -21 163 -41 250 -87 377 -16 43 -26 78 -22 78 4 0 2 4 -3 8
-6 4 -21 32 -35 62 -35 80 -159 264 -230 344 -57 63 -261 246 -275 246 -2 0
-36 22 -77 48 -72 48 -252 145 -263 142 -3 -1 -16 5 -28 12 -12 8 -52 27 -90
41 l-67 27 -413 -1 c-333 0 -418 -3 -444 -15z"/>
<path d="M6318 10694 c-2 -1 -19 -5 -39 -8 -98 -15 -276 -96 -379 -172 -63
-46 -213 -194 -205 -202 2 -2 -5 -13 -15 -25 -18 -19 -101 -171 -100 -182 0
-3 -7 -20 -16 -38 -21 -40 -45 -128 -38 -139 3 -4 2 -8 -3 -8 -10 0 -12 -20
-18 -185 -4 -122 6 -206 39 -325 18 -67 99 -209 156 -274 106 -122 267 -249
300 -238 24 8 63 60 65 84 0 4 6 13 13 20 6 6 12 16 12 20 0 4 23 43 50 85 45
70 48 78 33 87 -10 5 -24 16 -31 23 -8 7 -30 26 -50 41 -78 58 -104 89 -142
167 -35 73 -66 149 -69 168 -1 4 -1 8 -2 10 -7 22 -10 57 -14 129 -10 199 92
370 305 516 93 64 169 85 300 85 136 0 256 -40 363 -123 105 -81 160 -161 207
-300 28 -82 31 -98 34 -190 5 -117 -27 -225 -94 -320 -38 -54 -188 -200 -206
-200 -36 0 -3 -63 129 -243 l49 -67 52 36 c28 21 53 41 54 46 2 4 8 8 13 8 15
0 138 121 186 183 46 59 140 227 128 227 -4 0 -3 6 3 13 16 19 39 114 48 197
3 25 7 51 9 58 3 7 0 10 -5 7 -6 -4 -7 2 -2 17 5 13 7 39 5 58 -8 96 -12 129
-18 170 -4 24 -9 48 -11 52 -3 4 -7 20 -9 35 -8 61 -90 229 -132 271 -7 7 -13
18 -13 23 0 5 -44 54 -97 107 -92 91 -225 192 -256 192 -7 0 -18 5 -25 12 -6
6 -17 13 -24 15 -7 1 -39 12 -71 23 -101 36 -199 52 -334 54 -73 2 -134 2
-135 0z"/>
<path d="M6391 10072 c-67 -11 -208 -141 -235 -217 -24 -66 -30 -192 -11 -228
10 -19 10 -25 2 -21 -7 4 -4 -2 6 -13 9 -11 17 -25 17 -31 0 -15 127 -142 143
-143 7 -1 23 -3 37 -5 75 -12 199 -10 245 4 64 18 135 66 135 91 0 6 3 11 8
11 7 0 34 53 38 75 1 6 5 24 8 40 17 83 0 265 -25 265 -5 0 -9 5 -9 10 0 16
-61 79 -105 109 -61 41 -178 66 -254 53z"/>
<path d="M9237 9854 c-1 -1 -29 -4 -62 -8 -33 -3 -75 -10 -92 -15 -17 -5 -34
-7 -37 -3 -3 3 -6 0 -6 -6 0 -6 -16 -14 -35 -18 -19 -3 -35 -10 -35 -15 0 -5
-3 -8 -7 -7 -17 5 -128 -76 -183 -133 -79 -83 -160 -220 -161 -273 0 -23 -2
-86 -4 -141 -2 -55 -6 -212 -9 -350 -3 -137 -6 -250 -6 -250 -5 0 -11 -704
-12 -1287 l-1 -718 -2117 0 -2117 0 -1 728 c-1 771 -7 1222 -27 1925 -4 138
-6 150 -32 195 -41 72 -107 155 -160 202 -47 41 -133 100 -143 97 -3 0 -18 7
-35 16 -67 38 -172 55 -310 50 -140 -5 -190 -6 -330 0 -49 1 -117 -1 -150 -6
-33 -5 -70 -9 -82 -10 -13 -1 -23 -6 -23 -11 0 -5 -3 -7 -6 -4 -9 10 -174 -60
-174 -74 0 -5 -6 -8 -14 -8 -7 0 -45 -34 -84 -75 -110 -115 -188 -298 -211
-497 -1 -4 -20 2 -44 12 -71 32 -100 34 -477 34 -277 1 -380 -2 -428 -13 -34
-8 -65 -18 -68 -22 -3 -5 -14 -9 -25 -9 -10 0 -19 -4 -19 -10 0 -5 -5 -10 -10
-10 -27 0 -200 -134 -200 -155 0 -3 -8 -15 -19 -26 -25 -27 -86 -151 -98 -199
-5 -24 -12 -751 -13 -1457 l-1 -653 -202 -1 c-250 0 -376 -6 -447 -20 -30 -6
-59 -12 -65 -13 -34 -6 -126 -43 -157 -63 -21 -12 -40 -23 -43 -23 -8 0 -46
-32 -99 -85 -54 -53 -99 -105 -92 -105 3 0 -11 -26 -30 -57 l-34 -57 0 -463 0
-464 31 -57 c17 -31 38 -64 45 -73 8 -8 14 -20 14 -25 0 -5 36 -44 79 -86 100
-96 201 -157 267 -163 232 -19 301 -22 536 -24 l197 -1 1 -617 c0 -340 3 -802
6 -1028 2 -225 4 -417 4 -425 0 -8 0 -23 -1 -32 0 -17 10 -43 57 -144 64 -136
257 -282 407 -308 118 -20 556 -29 704 -14 71 8 143 28 195 54 27 14 27 14 33
-23 4 -21 12 -56 18 -78 6 -22 10 -44 8 -49 -1 -4 4 -14 10 -22 6 -8 8 -14 4
-14 -4 0 -3 -6 2 -13 10 -12 10 -44 -1 -54 -5 -5 41 -102 54 -113 3 -3 17 -23
31 -45 34 -52 134 -152 190 -190 24 -17 46 -32 49 -35 3 -3 24 -15 46 -27 41
-23 45 -23 473 -23 377 0 436 2 473 17 24 9 50 22 59 30 9 7 19 10 22 6 4 -3
7 -1 7 5 0 7 6 12 14 12 8 0 28 14 46 30 18 17 34 30 36 30 17 0 144 156 144
177 0 5 5 14 12 21 6 6 13 17 15 24 1 7 14 46 28 85 25 72 25 75 30 480 2 225
4 834 5 1356 l1 947 2119 0 2119 0 1 -837 c1 -1042 6 -1772 12 -1779 3 -2 2
-22 -2 -44 -4 -22 -5 -42 -2 -45 3 -3 7 -15 9 -26 7 -45 66 -176 105 -234 55
-81 182 -195 217 -195 6 0 11 -4 11 -9 0 -4 26 -18 59 -30 56 -20 74 -21 486
-21 423 0 428 0 469 22 54 29 162 112 205 157 83 88 181 243 162 256 -6 3 -8
13 -6 23 9 36 53 213 54 217 0 3 1 10 1 15 0 7 8 6 23 -2 12 -6 27 -13 32 -15
6 -1 29 -9 52 -17 24 -9 73 -19 110 -23 90 -10 475 -10 588 1 149 13 155 15
239 58 45 23 91 46 103 52 13 6 23 14 23 19 0 4 6 7 14 7 16 0 82 71 98 106 6
13 15 24 20 24 4 0 8 6 8 14 0 7 7 19 15 26 8 7 12 16 9 21 -3 5 -1 9 4 9 5 0
13 10 17 23 4 12 8 24 9 27 1 3 7 15 14 28 7 12 9 22 5 22 -4 0 -2 5 4 11 8 8
8 20 3 34 -5 13 -6 26 -3 29 3 3 7 199 9 435 1 237 5 435 9 441 3 5 1 10 -5
10 -6 0 -9 4 -5 9 3 6 6 269 6 585 l0 575 182 1 c191 1 292 5 417 15 41 3 99
7 128 9 73 5 176 68 272 166 86 88 104 110 93 110 -4 0 -3 4 4 8 7 4 28 38 48
76 l35 67 0 438 0 437 -28 55 c-77 149 -166 240 -313 322 -69 38 -281 57 -641
58 l-177 1 -1 556 c-1 667 -8 1376 -14 1452 -4 48 -9 78 -20 115 -2 6 -6 24
-11 40 -17 65 -82 172 -140 231 -67 66 -136 110 -241 151 l-69 27 -355 0
c-195 0 -380 -1 -410 -3 -56 -4 -111 -23 -143 -50 -22 -19 -28 -11 -33 41 -5
58 -15 128 -29 207 -11 64 -97 196 -179 275 -48 46 -140 107 -188 125 -18 7
-42 17 -53 21 -23 10 -110 27 -140 28 -72 3 -166 1 -200 -4 -58 -9 -112 -9
-180 0 -60 7 -144 13 -148 10z m-5712 -328 c66 -3 140 -8 165 -10 25 -3 67 -7
94 -10 91 -9 193 -109 223 -220 16 -55 18 -618 17 -3706 -1 -2541 -4 -3324
-13 -3355 -27 -89 -59 -136 -136 -193 -32 -24 -85 -33 -211 -37 -76 -2 -188
-7 -249 -11 -202 -13 -234 -11 -297 20 -99 49 -185 152 -195 234 -2 20 -6 42
-8 49 -2 7 0 15 4 18 5 2 6 22 3 42 -5 27 -7 6616 -3 6895 1 29 37 114 58 136
7 7 18 21 25 30 18 25 97 86 133 102 30 14 155 27 230 23 22 -1 94 -4 160 -7z
m6308 -40 c80 -39 128 -85 169 -160 l22 -41 -1 -3415 c-1 -1878 -2 -3423 -2
-3432 -1 -10 -1 -38 0 -63 1 -25 -1 -48 -4 -51 -3 -3 -1 -19 3 -35 5 -16 5
-31 0 -34 -4 -3 -6 -14 -3 -25 7 -25 -34 -95 -86 -146 -55 -55 -63 -60 -118
-86 -53 -25 -78 -27 -268 -14 -66 4 -173 9 -238 11 -65 2 -137 7 -159 10 -75
13 -149 71 -191 150 l-22 40 0 3555 0 3555 24 39 c38 61 91 112 156 151 l60
36 291 -4 291 -3 76 -38z m1107 -600 c96 -3 186 -8 200 -10 14 -3 54 -7 89
-10 72 -7 102 -25 156 -90 39 -48 67 -134 53 -160 -6 -10 -5 -16 1 -16 6 0 6
-11 1 -30 -5 -18 -5 -32 1 -35 5 -4 5 -14 -1 -26 -8 -14 -7 -19 2 -20 10 0 10
-2 0 -6 -6 -2 -9 -10 -5 -16 9 -15 10 -127 1 -127 -4 0 -5 -6 -3 -12 10 -28
12 -88 2 -88 -6 0 -6 -4 0 -12 14 -18 14 -4848 0 -4866 -5 -6 -6 -12 -1 -12 5
0 8 -48 6 -107 -3 -123 -3 -109 0 -190 2 -35 1 -63 -2 -63 -3 0 -5 -18 -5 -40
0 -22 2 -40 5 -40 3 0 4 -23 3 -51 -4 -93 -79 -183 -176 -211 -76 -21 -541
-16 -723 8 -39 6 -72 29 -116 83 -27 32 -69 121 -63 131 3 5 1 11 -4 14 -5 4
-6 19 -2 34 4 15 4 41 1 57 -4 17 -3 38 2 48 5 10 5 17 -1 17 -6 0 -6 11 -1
30 5 16 5 32 1 34 -9 6 -6 79 3 95 4 6 4 11 -1 11 -10 0 -10 101 0 118 5 6 5
12 0 12 -10 0 -10 211 0 227 4 6 3 14 -2 17 -14 9 -12 4419 3 4428 6 4 7 8 1
8 -9 0 -13 271 -5 305 1 6 2 12 0 15 -1 3 -1 30 -1 60 1 73 1 88 0 103 0 6 0
21 1 32 0 11 0 27 -1 35 -9 111 64 233 174 289 46 24 132 39 197 34 19 -1 114
-4 210 -7z m-8538 -29 c63 -31 119 -83 156 -146 l27 -46 0 -2905 0 -2905 -27
-46 c-37 -63 -93 -115 -158 -147 l-55 -27 -292 -1 c-313 -2 -362 3 -428 45
-42 27 -114 101 -99 101 5 0 3 4 -4 8 -7 5 -15 24 -18 43 -7 48 -7 166 0 178
4 5 3 12 -2 15 -10 6 -10 5521 0 5531 3 4 2 20 -2 36 -5 16 -5 31 0 34 5 3 7
12 3 20 -6 18 15 75 29 75 5 0 7 4 4 8 -3 5 15 29 39 53 58 58 65 63 111 88
38 21 48 21 351 18 l311 -4 54 -26z m-1232 -3108 l0 -562 -309 5 -309 5 -55
27 c-110 53 -178 149 -196 277 -15 99 -7 527 10 563 74 155 67 147 164 198
l90 47 303 1 302 0 0 -561z m7420 1 l0 -560 -2120 0 -2120 0 0 200 0 200 318
0 c174 -1 319 -1 322 0 3 0 174 2 381 3 206 2 380 7 387 10 6 4 13 3 17 -2 12
-20 68 16 103 65 57 82 13 221 -73 231 -41 5 -566 12 -1002 13 l-453 1 0 199
0 200 2120 0 2120 0 0 -560z m3825 543 c11 -6 23 -11 28 -12 4 0 23 -8 42 -17
68 -32 135 -122 148 -199 3 -17 10 -53 16 -82 24 -122 33 -307 19 -413 -11
-80 -51 -187 -87 -230 -119 -143 -251 -193 -491 -186 -69 2 -141 7 -160 11
-19 3 -59 11 -87 16 l-53 10 0 561 0 561 303 -5 c185 -3 310 -9 322 -15z"/>
<path d="M6275 5910 c-3 -4 -15 -6 -27 -3 -14 4 -26 0 -34 -12 -8 -11 -14 -15
-14 -10 0 4 -18 -11 -40 -34 -25 -27 -40 -52 -41 -69 0 -15 -2 -35 -4 -44 -2
-10 0 -18 5 -18 4 0 11 -11 14 -24 6 -24 76 -107 76 -90 0 4 5 3 12 -4 8 -8
15 -9 25 -1 9 8 13 8 13 0 0 -13 22 -10 32 4 5 7 8 6 8 -1 0 -7 36 -10 100
-10 55 1 100 -3 100 -7 0 -5 5 -5 11 -2 5 4 74 8 152 10 78 2 150 5 159 7 19
5 86 58 72 58 -5 0 -3 4 4 9 7 4 15 17 17 27 2 10 4 19 5 19 6 0 9 52 4 65 -9
18 -9 18 -18 53 -5 15 -14 27 -22 27 -7 0 -22 9 -33 21 -11 12 -24 18 -30 14
-6 -3 -11 -1 -11 6 0 8 -4 9 -13 0 -10 -8 -17 -7 -25 1 -8 8 -15 8 -27 -2 -8
-7 -15 -8 -15 -3 0 5 -74 9 -169 10 -94 1 -173 3 -178 6 -4 2 -17 1 -28 -3
-11 -4 -32 -4 -47 1 -15 4 -30 4 -33 -1z"/>
</g>
</svg>
